<?xml version="1.0" encoding="UTF-8"?>
<svg width="264px" height="246px" viewBox="0 0 264 246" version="1.1" xmlns="http://www.w3.org/2000/svg" xmlns:xlink="http://www.w3.org/1999/xlink">
    <title>c1</title>
    <g id="home" stroke="none" stroke-width="1" fill="none" fill-rule="evenodd">
        <g id="桌面端-HD" transform="translate(-1280.000000, -450.000000)" fill="#DCD6D1" fill-rule="nonzero">
            <g id="home-1" transform="translate(1279.647395, 450.000000)">
                <g id="编组" transform="translate(17.352605, 5.000000)">
                    <path d="M74.4213788,105.465463 C64.3327122,68.7257434 68.1594478,17.0821747 113.384505,6.33753957 C161.044757,-5.1002978 186.788251,43.7704619 192.354412,83.282991 C197.224803,119.67611 192.006527,160.575044 149.216666,168.54687 C107.818344,175.825493 84.8579305,139.432374 74.4213788,105.465463 C73.7256087,102.692654 69.5509881,104.079059 70.2467582,106.505267 C79.2917696,135.966363 96.3381373,168.200268 130.082988,173.052684 C155.478596,176.518696 182.961516,164.041055 193.050182,139.778976 C214.966941,85.7091989 175.65593,-27.9759725 101.208528,6.33753957 C62.941172,24.0141973 60.5059767,71.1519513 70.2467582,106.851868 C70.9425283,109.278076 75.1171489,108.238273 74.4213788,105.465463 Z" id="路径"></path>
                    <path d="M115.8197,35.4520347 C113.03662,47.9296755 106.774689,71.4985525 118.602781,80.856783 C127.647792,88.1354068 142.258964,81.5499853 149.912436,91.6014182 C160.348987,104.772261 155.826482,135.273161 146.78147,148.097403 C145.042045,150.523611 148.86878,152.603217 150.608206,150.17701 C160.696872,135.966363 166.263033,99.9198453 152.347631,86.4024012 C142.954735,77.3907717 124.168942,85.3625978 117.907011,71.4985525 C113.73239,62.1403219 117.907011,45.8500687 119.994321,36.145237 C120.690091,34.0656302 116.51547,33.0258268 115.8197,35.4520347 L115.8197,35.4520347 Z" id="路径"></path>
                    <path d="M1.01763235,88.8286091 C20.8470805,103.385857 48.3299997,108.238273 72.3340685,108.238273 C75.1171489,108.238273 75.1171489,103.732458 72.3340685,104.079059 C49.0257699,104.079059 22.5865057,99.5732442 3.10494268,85.3625978 C1.01763235,83.6295921 -1.41756303,87.4422046 1.01763235,88.8286091 L1.01763235,88.8286091 Z" id="路径"></path>
                    <path d="M233.752734,7.7239441 C230.273883,36.145237 218.793676,68.3791423 194.789608,85.3625978 C192.702297,87.0956034 194.789608,90.5616148 196.876918,89.1752102 C222.272527,71.1519513 234.448504,37.8782426 237.927354,7.7239441 C238.623124,4.95113504 234.100619,4.95113504 233.752734,7.7239441 L233.752734,7.7239441 Z" id="路径"></path>
                    <path d="M176.003815,158.148836 C178.43901,173.399285 174.612274,191.769145 161.044757,200.780775 C147.47724,209.792404 130.082988,206.326393 115.12393,203.553584 C112.34085,202.860382 111.297195,207.366196 114.080275,207.712798 C131.474528,211.178809 151.651861,214.64482 166.263033,202.167179 C179.13478,191.075943 182.613631,173.052684 180.178435,156.762431 C179.83055,154.336223 175.308045,155.376027 176.003815,158.148836 L176.003815,158.148836 Z" id="路径"></path>
                    <path d="M133.561838,173.399285 C135.649148,185.530325 133.909723,198.354567 126.604137,208.406 C117.211241,221.230242 100.164873,225.042854 88.6846661,212.565213 C86.9452408,210.485607 83.8142753,213.605017 85.5537006,215.684624 C96.6860223,228.162264 113.73239,227.815663 125.560482,216.377826 C137.040689,205.28659 140.519539,187.956533 137.736459,172.706083 C137.040689,169.240072 132.866068,170.626476 133.561838,173.399285 L133.561838,173.399285 Z" id="路径"></path>
                </g>
                <ellipse id="椭圆形" transform="translate(253.158662, 14.146295) rotate(-79.315937) translate(-253.158662, -14.146295) " cx="253.158662" cy="14.1462955" rx="12.8261784" ry="8.31919175"></ellipse>
                <ellipse id="椭圆形" transform="translate(135.939513, 222.196500) rotate(-17.523555) translate(-135.939513, -222.196500) " cx="135.939513" cy="222.1965" rx="9.01222731" ry="13.5190431"></ellipse>
                <ellipse id="椭圆形" transform="translate(102.231130, 230.877308) rotate(-73.591060) translate(-102.231130, -230.877308) " cx="102.23113" cy="230.877308" rx="13.5193807" ry="9.01243996"></ellipse>
                <ellipse id="椭圆形" transform="translate(14.951255, 86.879864) rotate(-45.000000) translate(-14.951255, -86.879864) " cx="14.9512555" cy="86.8798635" rx="8.31905637" ry="12.8252119"></ellipse>
            </g>
        </g>
    </g>
</svg>