<?xml version="1.0" encoding="UTF-8"?>
<svg width="289px" height="274px" viewBox="0 0 289 274" version="1.1" xmlns="http://www.w3.org/2000/svg" xmlns:xlink="http://www.w3.org/1999/xlink">
    <title>c2</title>
    <g id="home" stroke="none" stroke-width="1" fill="none" fill-rule="evenodd">
        <g id="桌面端-HD" transform="translate(-1682.000000, -545.000000)" fill="#DCD6D1" fill-rule="nonzero">
            <g id="home-2" transform="translate(1682.000000, 545.000000)">
                <ellipse id="椭圆形" transform="translate(69.404045, 14.352216) rotate(-9.056330) translate(-69.404045, -14.352216) " cx="69.4040449" cy="14.3522159" rx="8.31859838" ry="12.8252791"></ellipse>
                <ellipse id="椭圆形" transform="translate(276.374710, 84.535195) rotate(-68.568833) translate(-276.374710, -84.535195) " cx="276.37471" cy="84.5351946" rx="12.8262229" ry="8.31932527"></ellipse>
                <ellipse id="椭圆形" transform="translate(12.926216, 185.230578) rotate(-17.523555) translate(-12.926216, -185.230578) " cx="12.9262159" cy="185.230578" rx="9.01222731" ry="13.5190431"></ellipse>
                <ellipse id="椭圆形" transform="translate(113.047968, 258.437659) rotate(-39.102753) translate(-113.047968, -258.437659) " cx="113.047968" cy="258.437659" rx="9.01215201" ry="13.5184033"></ellipse>
                <g id="编组" transform="translate(15.000000, 17.000000)">
                    <path d="M84.3607183,84.9424502 C103.792252,56.5611863 149.248161,21.2576629 179.783429,57.2534122 C199.214962,80.0968685 198.520979,123.707103 182.906354,147.935011 C163.127828,179.085179 98.5873769,199.159732 72.2160097,166.625112 C54.1724427,144.473882 71.1750347,106.055342 84.3607183,84.9424502 C85.748685,82.5196593 82.2787682,80.4429815 80.5438099,82.8657723 C64.9291846,107.093681 46.8856175,152.43448 73.9509681,175.277936 C105.52721,201.582523 165.903762,183.238535 186.37627,150.703915 C203.725854,123.014877 204.072846,72.1362701 177.701479,49.6389268 C143.002311,19.873211 100.669327,53.7922825 80.5438099,83.2118853 C79.1558432,85.2885631 82.9727516,87.365241 84.3607183,84.9424502 Z" id="路径"></path>
                    <path d="M54.1724427,1.52922334 C49.3145592,31.6410521 61.8062595,62.7912198 80.8908015,85.2885631 C82.6257599,87.365241 85.748685,84.2502242 84.0137266,82.1735464 C65.9701596,60.714542 53.825451,30.9488262 58.3363427,2.56756226 C59.0303261,0.144771442 54.866426,-1.23968046 54.1724427,1.52922334 L54.1724427,1.52922334 Z" id="路径"></path>
                    <path d="M256.81558,68.3290274 C252.304688,100.171421 219.687471,121.284312 191.581145,129.937137 C188.805212,130.629363 190.193179,134.782718 192.622121,134.090493 C222.116413,125.091555 256.121597,102.940325 260.97948,69.7134793 C261.326472,66.9445755 257.162572,65.5601236 256.81558,68.3290274 L256.81558,68.3290274 Z" id="路径"></path>
                    <path d="M137.103453,179.777405 C116.630944,195.352489 104.486235,221.310962 104.486235,246.923322 C104.486235,249.692226 108.997127,249.692226 108.650135,246.923322 C108.650135,223.041527 119.753869,198.121393 138.838411,183.584648 C141.267353,181.854083 139.185403,178.392953 137.103453,179.777405 L137.103453,179.777405 Z" id="路径"></path>
                    <path d="M64.5821929,156.241723 C42.7217174,159.35674 20.5142503,165.932886 1.08271657,176.662388 C-1.34622514,178.04684 0.735724898,181.854083 3.16466661,180.469631 C22.2492087,169.740129 44.1096841,163.510095 65.6231679,160.395079 C68.3991013,160.048966 67.0111346,155.89561 64.5821929,156.241723 L64.5821929,156.241723 Z" id="路径"></path>
                    <path d="M152.718078,53.7922825 C138.491419,63.8295587 125.652727,80.4429815 129.816628,98.4408562 C131.204594,104.324777 134.674511,109.516471 135.368494,115.400392 C137.450444,129.244911 127.040694,140.320526 119.059886,150.357802 C115.242977,155.203384 110.385094,163.163982 104.833227,166.278999 C102.404285,167.663451 104.486235,171.470694 106.915177,170.086242 C110.385094,168.355677 113.161027,164.202321 115.589969,161.433417 C124.611752,151.050028 137.103453,138.243848 139.879386,124.745442 C141.961336,114.362053 136.062478,107.093681 134.327519,97.4025172 C131.204594,80.7890945 142.308328,66.5984625 155.14702,57.5995252 C156.881978,55.8689603 154.800028,52.0617176 152.718078,53.7922825 L152.718078,53.7922825 Z" id="路径"></path>
                </g>
            </g>
        </g>
    </g>
</svg>