<?xml version="1.0" encoding="UTF-8"?>
<svg width="314px" height="152px" viewBox="0 0 314 152" version="1.1" xmlns="http://www.w3.org/2000/svg" xmlns:xlink="http://www.w3.org/1999/xlink">
    <title>c3</title>
    <g id="home" stroke="none" stroke-width="1" fill="none" fill-rule="evenodd">
        <g id="桌面端-HD" transform="translate(-896.000000, -1657.000000)" fill="#462610" fill-rule="nonzero">
            <g id="about-3" transform="translate(895.824111, 1642.000144)">
                <ellipse id="椭圆形" transform="translate(300.458390, 114.208241) rotate(-12.237966) translate(-300.458390, -114.208241) " cx="300.45839" cy="114.208241" rx="11.7489732" ry="7.62143759"></ellipse>
                <ellipse id="椭圆形" transform="translate(46.356512, 50.399814) rotate(-47.662916) translate(-46.356512, -50.399814) " cx="46.3565118" cy="50.3998137" rx="7.62123494" ry="11.7495927"></ellipse>
                <ellipse id="椭圆形" transform="translate(14.204482, 132.219893) rotate(-51.079204) translate(-14.204482, -132.219893) " cx="14.2044823" cy="132.219893" rx="12.3848208" ry="8.25661864"></ellipse>
                <ellipse id="椭圆形" transform="translate(48.349046, 132.286115) rotate(-63.445226) translate(-48.349046, -132.286115) " cx="48.3490465" cy="132.286115" rx="12.3852077" ry="8.25665296"></ellipse>
                <g id="编组" transform="translate(150.183437, 89.000000) rotate(-10.000000) translate(-150.183437, -89.000000) translate(13.106026, 22.797478)">
                    <path d="M109.866097,34.8976092 C123.838368,21.242023 140.668605,8.53915209 160.039254,4.72829083 C183.220523,-0.0352857524 209.894859,12.3500134 218.151201,35.5327527 C229.58306,67.2899299 194.969933,97.1416765 171.153561,112.06755 C156.863738,121.277131 140.351053,129.216425 122.885714,128.581282 C101.609755,127.946138 77.4758311,111.432406 78.7460376,88.2496669 C80.0162441,67.9250735 95.5762738,48.2356236 109.866097,34.8976092 C111.771407,33.3097503 108.913442,30.4516044 107.008132,32.0394632 C92.4007575,45.3774776 77.7933827,64.431784 75.2529697,84.7563774 C71.1247986,115.243267 104.150168,135.250289 131.777159,132.074571 C178.7748,126.675851 259.750464,58.3979203 206.401791,12.9851569 C173.693974,-14.6435873 133.364917,6.63372146 107.008132,32.0394632 C105.102823,33.9448939 107.960787,36.8030398 109.866097,34.8976092 Z" id="路径"></path>
                    <path d="M189.254003,36.1678963 C176.86949,41.8841882 158.769047,51.0937695 155.275979,65.7020711 C154.323325,69.5129323 155.275979,73.6413654 154.958428,77.4522266 C153.688221,89.519954 144.796776,92.3780999 134.317572,95.8713894 C124.473472,99.0471071 113.994268,102.222825 103.832616,103.17554 C101.292203,103.493112 101.292203,107.303973 103.832616,106.986401 C112.724062,106.033686 121.615507,103.810684 130.189401,101.27011 C139.080847,98.7295354 152.735566,95.5538176 157.498841,86.3442362 C162.262115,76.1819395 156.863738,66.9723581 165.12008,57.1276332 C171.471112,49.5059107 182.585419,43.7896188 191.476865,39.6611858 C193.699726,38.7084704 191.476865,35.2151809 189.254003,36.1678963 L189.254003,36.1678963 Z" id="路径"></path>
                    <path d="M43.4978071,14.255444 C57.7876303,31.7218915 81.9215539,39.6611858 103.832616,39.9787575 C106.373029,39.9787575 106.373029,36.1678963 103.832616,36.1678963 C82.8742087,35.8503245 60.0104917,28.228602 46.3557718,11.7148698 C44.450462,9.49186741 41.910049,12.3500134 43.4978071,14.255444 L43.4978071,14.255444 Z" id="路径"></path>
                    <path d="M271.499875,114.608124 C245.460641,118.418985 217.83365,107.303973 196.240139,94.2835305 C194.017278,93.0132435 192.111968,96.5065329 194.334829,97.77682 C217.198547,111.432406 245.460641,122.229846 272.770081,118.418985 C275.310494,118.101413 274.040288,114.290552 271.499875,114.608124 L271.499875,114.608124 Z" id="路径"></path>
                    <path d="M105.420374,125.087992 C73.0301083,134.932717 40.6398425,121.912275 38.4169811,85.0739492 C38.4169811,82.533375 34.28881,82.533375 34.6063616,85.0739492 C36.829223,124.452849 71.4423502,139.696294 106.690581,128.898854 C108.913442,128.26371 107.960787,124.135277 105.420374,125.087992 L105.420374,125.087992 Z" id="路径"></path>
                    <path d="M75.888073,92.0605281 C51.1190462,104.128255 22.2218482,92.6956717 3.48630227,75.546796 C1.58099251,73.9589371 -1.27697212,76.4995113 0.628337633,78.4049419 C20.9516417,97.1416765 51.4365978,108.57426 78.1109344,95.5538176 C80.3337957,94.6011023 78.428486,91.1078128 75.888073,92.0605281 L75.888073,92.0605281 Z" id="路径"></path>
                </g>
            </g>
        </g>
    </g>
</svg>