<?xml version="1.0" encoding="UTF-8"?>
<svg width="662px" height="302px" viewBox="0 0 662 302" version="1.1" xmlns="http://www.w3.org/2000/svg" xmlns:xlink="http://www.w3.org/1999/xlink">
    <title>c4</title>
    <defs>
        <linearGradient x1="1.23473102%" y1="50.9660693%" x2="6792.00138%" y2="50.9660693%" id="linearGradient-1">
            <stop stop-color="#DCD6D1" stop-opacity="0" offset="0%"></stop>
            <stop stop-color="#DCD6D1" stop-opacity="0.3064" offset="4.734368%"></stop>
            <stop stop-color="#DCD6D1" offset="47.28%"></stop>
            <stop stop-color="#DCD6D1" stop-opacity="0.3692" offset="96.77%"></stop>
            <stop stop-color="#DCD6D1" stop-opacity="0" offset="100%"></stop>
        </linearGradient>
        <linearGradient x1="-2.02137929%" y1="49.9685279%" x2="101.77192%" y2="49.9685279%" id="linearGradient-2">
            <stop stop-color="#DCD6D1" stop-opacity="0" offset="0%"></stop>
            <stop stop-color="#DCD6D1" stop-opacity="0.3064" offset="4.734368%"></stop>
            <stop stop-color="#DCD6D1" offset="47.28%"></stop>
            <stop stop-color="#DCD6D1" stop-opacity="0.3692" offset="96.77%"></stop>
            <stop stop-color="#DCD6D1" stop-opacity="0" offset="100%"></stop>
        </linearGradient>
        <linearGradient x1="-5422.06825%" y1="53.8153846%" x2="98.8866508%" y2="53.8153846%" id="linearGradient-3">
            <stop stop-color="#DCD6D1" stop-opacity="0" offset="0%"></stop>
            <stop stop-color="#DCD6D1" stop-opacity="0.3064" offset="4.734368%"></stop>
            <stop stop-color="#DCD6D1" offset="47.28%"></stop>
            <stop stop-color="#DCD6D1" stop-opacity="0.3692" offset="96.77%"></stop>
            <stop stop-color="#DCD6D1" stop-opacity="0" offset="100%"></stop>
        </linearGradient>
    </defs>
    <g id="home" stroke="none" stroke-width="1" fill="none" fill-rule="evenodd">
        <g id="桌面端-HD" transform="translate(-1568.000000, -3207.000000)" fill-rule="nonzero">
            <g id="coffee-4" transform="translate(1568.000000, 3207.000000)">
                <ellipse id="椭圆形" fill="#DCD6D1" transform="translate(18.053280, 104.611401) rotate(-45.000000) translate(-18.053280, -104.611401) " cx="18.0532798" cy="104.611401" rx="9.84038291" ry="15.1705903"></ellipse>
                <ellipse id="椭圆形" fill="#DCD6D1" transform="translate(283.330847, 146.941960) rotate(-22.767509) translate(-283.330847, -146.941960) " cx="283.330847" cy="146.94196" rx="9.84035307" ry="15.1713567"></ellipse>
                <ellipse id="椭圆形" fill="#DCD6D1" cx="227.636292" cy="221.06431" rx="10.6601789" ry="15.9912828"></ellipse>
                <ellipse id="椭圆形" fill="#DCD6D1" transform="translate(60.844878, 243.949434) rotate(-27.613106) translate(-60.844878, -243.949434) " cx="60.8448779" cy="243.949434" rx="10.6603533" ry="15.9911085"></ellipse>
                <g id="编组" transform="translate(19.361532, 3.334640)" fill="#DCD6D1">
                    <path d="M75.4325307,91.439539 C75.8425375,49.206151 92.6528197,0.412236797 143.90368,4.51256572 C192.694499,8.61289465 199.254609,69.2977628 197.614581,107.430822 C196.794567,124.24217 196.384561,142.693651 187.774416,157.454835 C176.70423,176.316348 152.103817,183.286907 131.603473,182.056808 C86.9127233,179.186578 75.8425375,127.522434 75.4325307,91.439539 C75.4325307,88.1592758 70.1024412,88.1592758 70.5124481,91.439539 C70.922455,122.602039 77.4825651,161.965196 106.593054,179.596611 C132.01348,194.767828 175.064203,187.387236 191.464478,161.965196 C209.504781,133.672927 207.044739,84.8790127 198.844602,54.1265457 C189.82445,20.0938156 165.224038,-4.91819081 128.323418,0.82226969 C83.6326683,7.79282886 71.3324619,52.8964471 70.922455,91.8495719 C70.1024412,94.7198021 75.0225238,94.7198021 75.4325307,91.439539 Z" id="路径"></path>
                    <path d="M0.811278332,107.840855 C23.3616568,128.342499 54.5221797,132.442828 75.0225238,107.840855 C77.0725582,105.380657 73.3824963,101.690361 71.3324619,104.150559 C52.4721453,126.702368 24.5916774,122.602039 4.50134026,104.150559 C2.04129897,102.100394 -1.64876295,105.79069 0.811278332,107.840855 L0.811278332,107.840855 Z" id="路径"></path>
                    <path d="M199.664616,90.6194732 C229.185111,95.9499008 252.145496,121.37194 264.035696,147.204012 C265.265717,150.074243 269.775792,147.614045 268.545772,144.743815 C256.245565,117.681644 232.055159,91.0295061 201.304643,85.6990785 C197.614581,84.8790127 196.384561,89.7994074 199.664616,90.6194732 L199.664616,90.6194732 Z" id="路径"></path>
                    <path d="M107.00306,175.496282 C81.9926408,194.357795 57.8022348,218.959769 45.9120352,248.482137 C44.6820146,251.352367 49.6020972,252.992499 50.8321178,249.712236 C61.9023036,221.829999 85.6827027,197.638058 109.463102,179.596611 C111.923143,177.956479 109.463102,173.446117 107.00306,175.496282 L107.00306,175.496282 Z" id="路径"></path>
                    <path d="M150.873797,181.646775 C147.593742,193.947762 151.693811,207.88888 161.943983,215.269473 C177.524244,226.750394 193.924519,217.72967 207.044739,207.068815 C209.504781,205.01865 205.814719,201.328354 203.354678,203.378519 C191.464478,212.809275 176.294223,221.829999 163.174003,209.939045 C155.793879,203.378519 153.333838,192.307631 155.793879,182.876874 C156.613893,179.596611 151.693811,178.366512 150.873797,181.646775 L150.873797,181.646775 Z" id="路径"></path>
                    <path d="M128.323418,33.2148682 C116.023212,50.4362497 108.233081,78.3184864 122.583322,96.3599337 C131.603473,107.430822 136.523556,112.351216 130.78346,126.702368 C126.273384,138.593322 124.633356,149.66421 124.223349,162.785262 C124.223349,166.065525 129.143432,166.065525 129.143432,162.785262 C129.553439,148.434111 132.833494,137.363223 137.34357,124.24217 C139.393604,118.50171 139.803611,113.991348 138.163583,108.250888 C134.883528,98.4100981 125.45337,94.3097692 121.763308,84.4689798 C116.023212,68.477697 122.993329,49.206151 132.423487,35.6750656 C134.473522,33.2148682 129.963446,30.344638 128.323418,33.2148682 L128.323418,33.2148682 Z" id="路径"></path>
                    <path d="M263.625689,190.257466 C257.475586,179.186578 251.325483,161.145131 259.115613,149.66421 C270.185799,133.672927 293.146184,145.563881 303.806363,155.814703 C306.266405,157.864868 309.956467,154.584604 307.496425,152.124407 C294.786212,140.643486 272.64584,129.162565 257.885593,143.513716 C244.355366,156.224736 251.735489,179.186578 259.115613,193.127696 C260.755641,195.587894 265.265717,193.127696 263.625689,190.257466 L263.625689,190.257466 Z" id="路径"></path>
                    <path d="M255.015545,200.508288 C272.64584,185.747104 290.276136,170.575887 307.906432,155.814703 C310.366473,153.764539 314.056535,149.254177 316.926584,148.024078 C318.566611,147.614045 312.416508,146.793979 314.876549,148.434111 C316.10657,149.66421 317.746597,151.714374 318.976618,153.354506 C325.946735,164.015361 339.066955,173.446117 343.987038,184.927038 C345.217058,187.797269 345.217058,181.236742 343.987038,182.876874 C343.577031,183.69694 341.526996,185.337071 340.706983,185.747104 C335.7869,188.207302 330.866817,194.357795 327.176756,198.048091 C317.33659,207.068815 305.856398,215.269473 296.426239,225.110262 C295.196219,226.340361 293.556191,227.570459 292.326171,228.800558 C289.046116,231.260755 294.376205,229.620624 293.966198,229.620624 C289.866129,227.980492 284.946047,221.829999 281.665992,219.369801 C272.64584,211.989209 264.035696,204.198584 255.015545,196.817992 C252.555503,194.767828 248.865441,198.458124 251.325483,200.508288 C264.445703,211.579176 277.565923,223.060097 290.686143,234.130986 C291.916164,234.951051 293.146184,234.951051 294.376205,234.130986 C312.416508,218.139703 330.456811,202.14842 348.087106,186.157137 C349.317127,185.337071 348.90712,183.69694 348.087106,182.466841 C337.836934,169.755821 327.996769,156.634769 317.746597,143.923749 C316.926584,142.693651 314.876549,143.103683 314.056535,143.923749 C293.146184,161.555164 272.235834,179.186578 251.325483,196.817992 C248.865441,198.868157 252.555503,202.558453 255.015545,200.508288 Z" id="路径"></path>
                </g>
                <g id="编组" transform="translate(70.156680, 211.223520)">
                    <path d="M6.59708039,56.5845392 C6.18707351,56.5845392 5.77706663,56.5845392 5.36705975,56.1745063 C2.0870047,53.304276 0.856984059,51.6641445 0.446977178,51.6641445 C-0.373036584,50.8440787 0.0369702974,49.61398 0.856984059,48.7939142 C1.67699782,47.9738484 2.90701846,48.3838813 3.72703223,49.2039471 L3.72703223,49.2039471 C3.72703223,49.2039471 4.95705287,50.8440787 7.82710104,53.304276 C8.6471148,54.1243418 8.6471148,55.3544405 8.23710792,56.1745063 C7.82710104,56.5845392 7.00708727,56.5845392 6.59708039,56.5845392 Z" id="路径" fill="url(#linearGradient-1)"></path>
                    <path d="M112.788863,80.7764798 C111.558842,80.7764798 110.738828,79.9564141 110.738828,78.7263154 C110.738828,77.4962167 111.558842,76.6761509 112.788863,76.6761509 C115.658911,76.6761509 118.118952,76.6761509 120.989,76.6761509 L125.089069,76.6761509 C126.31909,76.6761509 127.139103,77.4962167 127.139103,78.7263154 C127.139103,79.9564141 126.31909,80.7764798 125.089069,80.7764798 L120.989,80.7764798 C118.118952,80.7764798 115.248904,80.7764798 112.788863,80.7764798 C112.788863,80.7764798 112.788863,80.7764798 112.788863,80.7764798 Z M104.588725,80.7764798 C104.588725,80.7764798 104.588725,80.7764798 104.588725,80.7764798 C100.078649,80.7764798 95.9785804,80.7764798 92.2885185,80.366447 C91.0584979,80.366447 90.2384841,79.5463812 90.2384841,78.3162825 C90.2384841,77.0861838 91.0584979,76.266118 92.2885185,76.266118 C96.3885873,76.266118 100.078649,76.6761509 104.588725,76.6761509 C105.818746,76.6761509 106.638759,77.4962167 106.638759,78.7263154 C106.638759,79.9564141 105.408739,80.7764798 104.588725,80.7764798 Z M361.253032,80.7764798 C361.253032,80.7764798 360.843026,80.7764798 361.253032,80.7764798 C356.742957,80.366447 352.642888,79.9564141 348.542819,78.7263154 C347.312798,78.3162825 346.902792,77.0861838 347.312798,76.266118 C347.722805,75.0360193 348.952826,74.6259865 349.77284,75.0360193 C353.462902,76.266118 357.152964,76.6761509 361.253032,77.0861838 C362.483053,77.0861838 363.303067,78.3162825 363.303067,79.1363483 C362.89306,79.9564141 362.073046,80.7764798 361.253032,80.7764798 Z M369.45317,80.7764798 C368.223149,80.7764798 367.403136,79.9564141 367.403136,78.7263154 C367.403136,77.4962167 368.223149,76.6761509 369.043163,76.6761509 C372.733225,76.266118 376.423287,75.4460522 380.113349,73.8059207 C381.34337,73.3958878 382.163383,73.8059207 382.983397,75.0360193 C383.393404,76.266118 382.983397,77.0861838 381.753376,77.9062496 C377.653308,79.1363483 373.553239,80.366447 369.45317,80.7764798 C369.45317,80.7764798 369.45317,80.7764798 369.45317,80.7764798 Z M133.289207,80.366447 C132.059186,80.366447 131.239172,79.5463812 131.239172,78.3162825 C131.239172,77.0861838 132.059186,76.266118 133.289207,76.266118 C137.389275,75.8560851 141.489344,75.8560851 145.589413,75.4460522 C146.819434,75.4460522 147.639447,76.266118 147.639447,77.4962167 C147.639447,78.7263154 146.819434,79.5463812 145.589413,79.5463812 C141.489344,79.5463812 137.389275,79.9564141 133.289207,80.366447 C133.289207,80.366447 133.289207,80.366447 133.289207,80.366447 Z M84.0883809,79.9564141 C84.0883809,79.9564141 84.0883809,79.9564141 84.0883809,79.9564141 C79.5783052,79.5463812 75.4782364,79.1363483 71.7881745,78.7263154 C70.5581538,78.7263154 69.7381401,77.4962167 70.1481469,76.266118 C70.1481469,75.0360193 71.3781676,74.2159536 72.6081882,74.6259865 C76.2982502,75.0360193 80.398319,75.4460522 84.9083947,75.8560851 C86.1384153,75.8560851 86.9584291,77.0861838 86.9584291,77.9062496 C86.1384153,79.1363483 84.9083947,79.9564141 84.0883809,79.9564141 Z M153.789551,78.7263154 C152.55953,78.7263154 151.739516,77.9062496 151.739516,77.0861838 C151.739516,75.8560851 152.55953,75.0360193 153.379544,75.0360193 C157.479613,74.6259865 161.579681,74.2159536 165.67975,73.3958878 C166.909771,73.3958878 167.729785,74.2159536 168.139791,75.0360193 C168.139791,76.266118 167.319778,77.0861838 166.499764,77.4962167 C161.989688,77.4962167 157.889619,78.3162825 153.789551,78.7263154 C153.789551,78.7263154 153.789551,78.7263154 153.789551,78.7263154 Z M63.5880368,77.4962167 C63.5880368,77.4962167 63.5880368,77.4962167 63.5880368,77.4962167 C59.0779612,76.6761509 54.9778923,76.266118 50.8778235,75.4460522 C49.6478029,75.0360193 49.237796,74.2159536 49.237796,72.9858549 C49.6478029,71.7557562 50.4678167,71.3457233 51.6978373,71.3457233 C55.3878992,72.1657891 59.487968,72.9858549 63.5880368,73.3958878 C64.8180575,73.3958878 65.6380712,74.6259865 65.2280644,75.8560851 C65.6380712,76.6761509 64.8180575,77.4962167 63.5880368,77.4962167 Z M173.879888,75.8560851 C173.059874,75.8560851 171.829853,75.0360193 171.829853,74.2159536 C171.829853,72.9858549 172.23986,72.1657891 173.469881,71.7557562 C177.56995,70.9356904 181.670019,70.5256575 185.36008,69.7055917 C186.590101,69.2955589 187.410115,70.1156246 187.820122,71.3457233 C188.230129,72.575822 187.410115,73.3958878 186.180094,73.8059207 C182.490032,74.6259865 178.389964,75.0360193 173.879888,75.8560851 C174.289895,75.8560851 173.879888,75.8560851 173.879888,75.8560851 Z M341.572702,75.4460522 C341.162695,75.4460522 340.752688,75.4460522 340.752688,75.0360193 C337.062626,72.9858549 333.372565,70.9356904 330.092509,68.4754931 C329.272496,67.6554273 328.862489,66.4253286 329.682503,65.6052628 C330.502516,64.785197 331.732537,64.3751641 332.552551,65.1952299 C335.832606,67.2453944 339.112661,69.7055917 342.802723,71.3457233 C343.622737,71.7557562 344.032743,72.9858549 343.622737,74.2159536 C342.802723,75.0360193 342.392716,75.4460522 341.572702,75.4460522 Z M388.313487,73.8059207 C387.493473,73.8059207 387.083466,73.3958878 386.673459,72.575822 C386.263452,71.7557562 386.673459,70.5256575 387.493473,69.7055917 C390.773528,68.0654602 394.053583,65.6052628 397.743645,63.1450655 C398.563659,62.3249997 399.793679,62.7350326 400.613693,63.5550984 C401.433707,64.3751641 401.0237,65.6052628 400.203686,66.4253286 C396.513624,69.2955589 392.823562,71.3457233 389.543507,72.9858549 C389.1335,73.8059207 388.723493,73.8059207 388.313487,73.8059207 Z M43.4976997,73.3958878 C43.4976997,73.3958878 43.0876928,73.3958878 43.0876928,73.3958878 C38.987624,72.1657891 34.8875552,70.9356904 31.1974932,69.7055917 C29.9674726,69.2955589 29.5574657,68.0654602 29.9674726,67.2453944 C30.3774795,66.0152957 31.6075001,65.6052628 32.4275139,66.0152957 C36.1175758,67.2453944 39.8076377,68.4754931 43.9077066,69.7055917 C45.1377272,70.1156246 45.5477341,70.9356904 45.5477341,72.1657891 C45.1377272,72.9858549 44.3177134,73.3958878 43.4976997,73.3958878 Z M193.970225,71.7557562 C193.150211,71.7557562 192.330197,70.9356904 191.920191,70.1156246 C191.510184,68.885526 192.330197,68.0654602 193.560218,67.6554273 C197.660287,66.8353615 201.760356,65.6052628 205.450418,64.785197 C206.680438,64.3751641 207.500452,65.1952299 207.910459,66.0152957 C208.320466,66.8353615 207.500452,68.0654602 206.680438,68.4754931 C202.990376,69.7055917 198.890308,70.5256575 194.790239,71.7557562 C194.380232,71.7557562 193.970225,71.7557562 193.970225,71.7557562 Z M24.2273763,66.8353615 C23.8173694,66.8353615 23.8173694,66.8353615 23.4073625,66.8353615 C19.3072937,65.1952299 15.6172318,63.1450655 12.3371767,61.094901 C11.517163,60.6848681 11.1071561,59.0447365 11.517163,58.2246708 C11.9271698,57.404605 13.5671974,56.9945721 14.3872111,57.404605 C17.6672662,59.4547694 21.3573281,61.094901 25.04739,62.7350326 C26.2774107,63.1450655 26.6874176,64.3751641 26.2774107,65.6052628 C25.8674038,66.4253286 25.04739,66.8353615 24.2273763,66.8353615 Z M213.650555,66.4253286 C212.830542,66.4253286 212.010528,66.0152957 211.600521,64.785197 C211.190514,63.5550984 212.010528,62.7350326 212.830542,62.3249997 C216.93061,61.094901 220.620672,59.8648023 224.310734,58.6347036 C225.540755,58.2246708 226.360769,59.0447365 226.770775,59.8648023 C227.180782,60.6848681 226.360769,61.9149668 225.540755,62.3249997 C221.850693,63.5550984 217.750624,64.785197 213.650555,66.0152957 C214.060562,66.4253286 214.060562,66.4253286 213.650555,66.4253286 Z M324.352413,64.3751641 C323.942406,64.3751641 323.532399,64.3751641 323.122392,63.9651312 C319.432331,61.5049339 316.152276,59.8648023 312.462214,58.6347036 C311.232193,58.2246708 310.822186,56.9945721 311.232193,55.7644734 C311.6422,54.5343747 312.87222,54.1243418 314.102241,54.5343747 C317.792303,56.1745063 321.482365,57.8146379 325.172427,60.2748352 C325.992441,60.6848681 326.402448,62.3249997 325.992441,63.1450655 C325.582434,63.9651312 324.76242,64.3751641 324.352413,64.3751641 Z M405.533776,62.3249997 C405.123769,62.3249997 404.303755,61.9149668 403.893748,61.5049339 C403.073734,60.6848681 403.483741,59.4547694 404.303755,58.6347036 C407.58381,56.1745063 410.453858,53.7143089 413.733913,50.8440787 C414.553927,50.0240129 415.783948,50.0240129 416.603961,51.2541116 C417.423975,52.0741774 417.423975,53.304276 416.193954,54.1243418 C412.913899,56.9945721 409.633844,59.4547694 406.763796,61.9149668 C406.353789,62.3249997 405.943782,62.3249997 405.533776,62.3249997 Z M233.330886,60.2748352 C232.510872,60.2748352 231.690858,59.8648023 231.280851,59.0447365 C230.870844,57.8146379 231.690858,56.9945721 232.510872,56.5845392 C236.610941,55.3544405 240.301003,54.1243418 244.401071,52.8942431 C245.631092,52.4842103 246.451106,53.304276 246.861113,54.5343747 C247.27112,55.7644734 246.451106,56.5845392 245.221085,56.9945721 C241.531023,58.2246708 237.430954,59.0447365 233.740892,60.6848681 C233.740892,60.2748352 233.330886,60.2748352 233.330886,60.2748352 Z M305.492097,56.1745063 C305.492097,56.1745063 305.08209,56.1745063 305.08209,56.1745063 C301.392028,54.9444076 297.291959,54.1243418 293.19189,53.7143089 C291.96187,53.7143089 291.141856,52.4842103 291.551863,51.2541116 C291.551863,50.0240129 292.781883,49.2039471 294.011904,49.61398 C298.52198,50.4340458 302.622048,51.2541116 306.31211,52.0741774 C307.542131,52.4842103 307.952138,53.7143089 307.542131,54.5343747 C307.132124,55.3544405 306.31211,56.1745063 305.492097,56.1745063 Z M253.011216,54.9444076 C252.191202,54.9444076 251.371188,54.1243418 250.961181,53.304276 C250.551175,52.0741774 251.371188,51.2541116 252.601209,50.8440787 C256.701278,50.0240129 260.801347,49.2039471 264.901415,48.7939142 C266.131436,48.7939142 266.95145,49.61398 267.361457,50.4340458 C267.361457,51.6641445 266.541443,52.4842103 265.721429,52.8942431 C261.62136,53.304276 257.931298,54.1243418 253.83123,54.9444076 C253.421223,54.9444076 253.011216,54.9444076 253.011216,54.9444076 Z M285.401759,52.4842103 C285.401759,52.4842103 285.401759,52.4842103 285.401759,52.4842103 C284.581746,52.4842103 283.351725,52.4842103 282.531711,52.4842103 C279.251656,52.4842103 275.971601,52.4842103 273.101553,52.4842103 C271.871532,52.4842103 271.051519,51.6641445 271.051519,50.4340458 C271.051519,49.2039471 271.871532,48.3838813 273.101553,48.3838813 C276.381608,48.3838813 279.251656,48.3838813 282.941718,48.3838813 C283.761732,48.3838813 284.991753,48.3838813 285.811766,48.3838813 C287.041787,48.3838813 287.861801,49.61398 287.861801,50.4340458 C287.451794,51.6641445 286.63178,52.4842103 285.401759,52.4842103 Z M421.114037,49.2039471 C420.70403,49.2039471 419.884016,48.7939142 419.47401,48.3838813 C418.653996,47.5638155 418.653996,46.3337169 419.47401,45.5136511 L428.904168,37.3129932 C429.724182,36.4929274 430.954202,36.4929274 431.774216,37.3129932 C432.59423,38.133059 432.59423,39.3631577 431.774216,40.1832235 L422.344058,48.3838813 C421.934051,49.2039471 421.524044,49.2039471 421.114037,49.2039471 Z M436.694299,35.6728617 C436.284292,35.6728617 435.464278,35.2628288 435.054271,34.8527959 C434.234257,34.0327301 434.234257,32.8026314 435.464278,31.9825656 C438.744333,29.1123354 441.614381,26.652138 444.894436,24.1919407 C445.71445,23.3718749 446.944471,23.7819078 447.764484,24.6019736 C448.584498,25.4220393 448.174491,26.652138 447.354477,27.4722038 C444.074422,29.9324012 441.204374,32.8026314 437.924319,35.2628288 C437.514312,35.6728617 437.104305,35.6728617 436.694299,35.6728617 Z M452.684567,22.5518091 C451.864553,22.5518091 451.454546,22.1417762 451.044539,21.7317433 C450.224526,20.9116775 450.634532,19.6815788 451.454546,18.8615131 C455.144608,15.9912828 458.424663,13.9411183 461.704718,11.8909539 C462.524732,11.480921 463.754753,11.480921 464.574766,12.7110197 C464.984773,13.5310855 464.984773,14.7611841 463.754753,15.5812499 C460.474698,17.6314144 457.194643,19.6815788 453.914588,22.5518091 C453.504581,22.5518091 453.094574,22.5518091 452.684567,22.5518091 Z M560.926383,16.4013157 C560.926383,16.4013157 560.516377,16.4013157 560.516377,16.4013157 C556.826315,15.5812499 553.136253,14.3511512 548.626177,13.1210526 C547.396156,12.7110197 546.986149,11.480921 547.396156,10.6608552 C547.806163,9.43075653 549.036184,9.02072364 549.856198,9.43075653 C554.366273,10.6608552 558.056335,11.8909539 561.746397,12.7110197 C562.976418,13.1210526 563.386425,13.9411183 563.386425,15.171217 C562.976418,15.9912828 562.156404,16.4013157 560.926383,16.4013157 Z M469.494849,11.480921 C468.674835,11.480921 467.854821,11.0708881 467.854821,10.2508223 C467.444815,9.43075653 467.854821,8.20065785 468.674835,7.38059207 C472.774904,5.3304276 476.464966,3.69029603 480.155028,2.46019736 C481.385049,2.05016446 482.205062,2.87023025 482.615069,3.69029603 C483.025076,4.51036182 482.205062,5.7404605 481.385049,6.15049339 C478.104993,7.38059207 474.414932,8.61069074 470.314863,10.6608552 C470.314863,11.480921 469.904856,11.480921 469.494849,11.480921 Z M541.246053,10.6608552 C541.246053,10.6608552 540.836046,10.6608552 540.836046,10.6608552 C537.145984,9.43075653 533.455922,8.20065785 528.945847,7.38059207 C527.715826,6.97055917 527.305819,6.15049339 527.305819,4.92039471 C527.305819,3.69029603 528.53584,3.28026314 529.76586,3.28026314 C533.865929,4.51036182 537.965998,5.7404605 541.65606,6.56052628 C542.886081,6.97055917 543.296088,8.20065785 542.886081,9.02072364 C542.886081,10.2508223 542.476074,10.6608552 541.246053,10.6608552 Z M521.565723,5.7404605 C521.565723,5.7404605 521.155716,5.7404605 521.565723,5.7404605 C517.055647,4.92039471 513.365585,4.51036182 509.265516,4.10032893 C508.035496,4.10032893 507.215482,2.87023025 507.215482,2.05016446 C507.215482,1.23009868 508.445503,0 509.265516,0 C513.365585,0.410032893 517.465654,0.820065785 521.565723,1.64013157 C522.795744,1.64013157 523.615757,2.87023025 523.20575,4.10032893 C523.615757,4.92039471 522.385737,5.7404605 521.565723,5.7404605 Z M488.765172,4.92039471 C487.945159,4.92039471 486.715138,4.10032893 486.715138,3.28026314 C486.715138,2.05016446 487.535152,1.23009868 488.355166,0.820065785 C492.455234,0.410032893 496.96531,0 500.655372,0 C501.885393,0 502.705406,0.820065785 502.705406,2.05016446 C502.705406,3.28026314 501.885393,4.10032893 500.655372,4.10032893 C497.375317,4.10032893 493.275248,4.51036182 488.765172,4.92039471 C489.175179,4.92039471 489.175179,4.92039471 488.765172,4.92039471 Z" id="形状" fill="url(#linearGradient-2)"></path>
                    <path d="M575.686631,19.271546 C575.686631,19.271546 575.686631,19.271546 575.686631,19.271546 C573.22659,18.8615131 571.176555,18.4514802 569.126521,18.0414473 C567.8965,17.6314144 567.076487,16.8113486 567.486494,15.5812499 C567.486494,14.3511512 568.716514,13.9411183 569.946535,13.9411183 C571.996569,14.3511512 574.046604,14.7611841 576.096638,14.7611841 C577.326659,14.7611841 578.146672,15.9912828 577.736666,17.2213815 C577.736666,18.4514802 576.506645,19.271546 575.686631,19.271546 Z" id="路径" fill="url(#linearGradient-3)"></path>
                </g>
            </g>
        </g>
    </g>
</svg>